<svg version="1.1" id="Layer_1" xmlns="http://www.w3.org/2000/svg" xmlns:xlink="http://www.w3.org/1999/xlink" x="0px" y="0px" viewBox="0 0 214.3 60" style="enable-background:new 0 0 214.3 60;" xml:space="preserve"> <g> <g> <path d="M211.3,2.9v54.1H2.9V2.9H211.3 M214.3,0H0v60h214.3V0L214.3,0z"/> </g> <g> <g> <path d="M69.9,44.5V29.5h3.6v15.1H69.9z"/> <path d="M90.4,29.5v15.1H87l-3.1-4.2c-1.4-1.9-3.4-4.8-3.4-4.8h0c0,0,0,2.3,0,5.6v3.3h-3.6V29.5h3.4l3.2,4.3 c1,1.3,3.3,4.5,3.3,4.5h0c0,0,0-2.7,0-5.4v-3.4H90.4z"/> <path d="M104.5,43.3c-0.9,0.9-2.6,1.5-4.1,1.5c-4.3,0-7.8-3.3-7.8-7.8c0-4.5,3.5-7.8,7.8-7.8c2.9,0,5.5,1.5,6.8,4l-3.7,1 c-0.7-0.9-2-1.4-3.2-1.4c-2.5,0-4,1.8-4,4.3c0,2.6,1.8,4.3,4.3,4.3c2.4,0,3.5-1.2,3.9-2.4v0h-4V36h7v8.5h-3.1 C104.5,43.6,104.5,43.3,104.5,43.3L104.5,43.3z"/> <path d="M121.6,41.2v3.4h-11.1V29.5h10.9v3.4h-7.3v2.5h5.7v3.2h-5.7v2.7H121.6z"/> <path d="M138.3,29.5v15.1h-3.4l-3.1-4.2c-1.4-1.9-3.4-4.8-3.4-4.8h0c0,0,0,2.3,0,5.6v3.3h-3.6V29.5h3.4l3.2,4.3 c1,1.3,3.3,4.5,3.3,4.5h0c0,0,0-2.7,0-5.4v-3.4H138.3z"/> <path d="M141.7,44.5V29.5h3.6v15.1H141.7z"/> <path d="M159.7,41.2v3.4h-11.1V29.5h10.9v3.4h-7.3v2.5h5.7v3.2h-5.7v2.7H159.7z"/> <path d="M171.2,44.5l-2.8-4.9h-1.9v4.9h-3.6V29.5h5.6c3.8,0,6.1,2.1,6.1,5.2c0,2-1,3.5-2.7,4.3l3.3,5.6H171.2z M166.5,36.4h2.5 c1.3,0,1.8-1,1.8-1.8c0-0.8-0.5-1.8-1.8-1.8h-2.5V36.4z"/> <path d="M177.5,44.5V29.5h3.6v15.1H177.5z"/> <path d="M193.1,42.2h-6l-0.9,2.4h-3.9l6-15.1h3.4l6,15.1H194L193.1,42.2z M191.9,39l-1.1-2.9c-0.3-0.9-0.7-2.2-0.7-2.2h0 c0,0-0.4,1.4-0.7,2.2l-1.1,2.9H191.9z"/> </g> <g> <path d="M16.7,23c-0.2-0.1-0.3-0.3-0.3-0.5c1.4-4.2,5.1-7.4,10.4-7.4c6.1,0,10.1,3.9,10.1,9.1c0,5.2-3.6,7.7-7,10.1 c-2.3,1.6-4.7,3.2-4.7,3.2l0,0c0,0,2.8-0.2,7-0.2h4.4c0.2,0,0.4,0.2,0.4,0.4v5.5c0,0.2-0.2,0.4-0.4,0.4H17 c-0.2,0-0.4-0.2-0.4-0.4l0-4.9c0-0.1,0-0.2,0.1-0.3c3.8-3.4,7.5-6.7,11.3-10c1.4-1.2,2.2-2.6,2.2-3.8c0-1.7-1.4-3.2-3.6-3.2 c-2.3,0-3.5,1.8-4.1,3.2c-0.1,0.2-0.3,0.3-0.5,0.2L16.7,23z"/> <path d="M63,16.1v27.1c0,0.2-0.2,0.4-0.4,0.4h-5.9c-0.2,0-0.4-0.2-0.4-0.4V33.2c0-0.2-0.2-0.4-0.4-0.4h-9.7 c-0.2,0-0.4,0.2-0.4,0.4v10.1c0,0.2-0.2,0.4-0.4,0.4h-5.9c-0.2,0-0.4-0.2-0.4-0.4V16.1c0-0.2,0.2-0.4,0.4-0.4h5.9 c0.2,0,0.4,0.2,0.4,0.4v10c0,0.2,0.2,0.4,0.4,0.4h9.7c0.2,0,0.4-0.2,0.4-0.4v-10c0-0.2,0.2-0.4,0.4-0.4h5.9 C62.8,15.7,63,15.9,63,16.1z"/> </g> </g> </g> </svg>