<svg xmlns="http://www.w3.org/2000/svg" xmlns:xlink="http://www.w3.org/1999/xlink" version="1.1" x="0px" y="0px" viewBox="0 0 100 125" style="enable-background:new 0 0 100 100;" xml:space="preserve"><g><path d="M73.9,43.9l-5-3.1c-0.5-0.3-0.9-0.9-0.9-1.6l-0.1-5.7c0-1-0.5-1.9-1.2-2.6c-0.7-0.6-1.7-0.9-2.7-0.8l-5.8,0.8   c-0.6,0.1-1.2-0.1-1.7-0.6L52.6,26c-0.7-0.7-1.6-1.2-2.6-1.2c-1,0-1.9,0.4-2.6,1.2l-3.8,4.3c-0.4,0.5-1,0.7-1.7,0.6l-5.8-0.8   c-1-0.1-2,0.2-2.7,0.8c-0.7,0.6-1.2,1.6-1.2,2.6l-0.1,5.7c0,0.6-0.3,1.2-0.9,1.6l-5,3.1c-0.8,0.5-1.4,1.4-1.6,2.4   c-0.2,1,0.1,2,0.8,2.8l3.6,4.3c0.4,0.5,0.5,1.2,0.3,1.8l-1.9,5.6c-0.3,1-0.2,2,0.3,2.9c0.5,0.9,1.4,1.5,2.4,1.6l5.6,1   c0.7,0.1,1.2,0.6,1.4,1.2l2.1,5.5c0.4,0.9,1.1,1.7,2.1,2c1,0.3,2,0.2,2.9-0.3l5-2.9c0.6-0.3,1.3-0.3,1.9,0l5,2.9   c0.5,0.3,1.1,0.5,1.7,0.5c0.4,0,0.8-0.1,1.2-0.2c1-0.3,1.7-1.1,2.1-2l2.1-5.5c0.2-0.6,0.8-1.1,1.4-1.2l5.6-1c1-0.2,1.9-0.8,2.4-1.6   c0.5-0.9,0.6-1.9,0.3-2.9l-1.9-5.6c-0.2-0.6-0.1-1.3,0.3-1.8l3.6-4.3c0.6-0.8,0.9-1.8,0.8-2.8C75.3,45.3,74.7,44.4,73.9,43.9z    M73.5,48l-3.6,4.3c-0.8,0.9-1,2.2-0.6,3.3l1.9,5.6c0.2,0.5,0.1,1.1-0.2,1.6c-0.3,0.5-0.8,0.8-1.3,0.9l-5.6,1   c-1.2,0.2-2.2,1-2.6,2.2l-2.1,5.5c-0.2,0.5-0.6,0.9-1.1,1.1c-0.5,0.2-1.1,0.1-1.6-0.1l-5-2.9c-1.1-0.6-2.4-0.6-3.4,0l-5,2.9   c-0.5,0.3-1.1,0.3-1.6,0.1c-0.5-0.2-0.9-0.6-1.1-1.1l-2.1-5.5c-0.4-1.1-1.4-2-2.6-2.2l-5.6-1c-0.5-0.1-1-0.4-1.3-0.9   c-0.3-0.5-0.3-1-0.2-1.6l1.9-5.6c0.4-1.1,0.1-2.4-0.6-3.3L26.5,48c-0.3-0.4-0.5-1-0.4-1.5c0.1-0.5,0.4-1,0.9-1.3l5-3.1   c1-0.6,1.6-1.7,1.6-2.9l0.1-5.7c0-0.5,0.2-1,0.7-1.4c0.3-0.3,0.8-0.5,1.2-0.5c0.1,0,0.2,0,0.3,0l5.8,0.8c1.1,0.2,2.3-0.3,3-1.1   l3.8-4.3c0.7-0.8,2.1-0.8,2.8,0c0,0,0,0,0,0l3.8,4.3c0.8,0.9,1.9,1.3,3,1.1l5.8-0.8c0.5-0.1,1.1,0.1,1.5,0.4   c0.4,0.4,0.7,0.9,0.7,1.4l0.1,5.7c0,1.2,0.6,2.2,1.6,2.9l5,3.1c0.5,0.3,0.8,0.8,0.9,1.3C74,47,73.9,47.6,73.5,48z"/><path d="M59.1,42.6L46.2,57.3l-5.3-5.9c-0.3-0.3-0.8-0.3-1.1-0.1c-0.3,0.3-0.3,0.8-0.1,1.1l5.9,6.5c0.1,0.2,0.4,0.3,0.6,0.3   c0,0,0,0,0,0c0.2,0,0.4-0.1,0.6-0.3l13.4-15.4c0.3-0.3,0.3-0.8-0.1-1.1C59.9,42.2,59.4,42.3,59.1,42.6z"/></g><text x="0" y="115" fill="#000000" font-size="5px" font-weight="bold" font-family="'Helvetica Neue', Helvetica, Arial-Unicode, Arial, Sans-serif">Created by mikicon</text><text x="0" y="120" fill="#000000" font-size="5px" font-weight="bold" font-family="'Helvetica Neue', Helvetica, Arial-Unicode, Arial, Sans-serif">from the Noun Project</text></svg>