<?xml version="1.0" encoding="utf-8"?>
<!-- Generator: Adobe Illustrator 22.1.0, SVG Export Plug-In . SVG Version: 6.00 Build 0)  -->
<svg version="1.1" id="Layer_1" xmlns="http://www.w3.org/2000/svg" xmlns:xlink="http://www.w3.org/1999/xlink" x="0px" y="0px"
	 viewBox="0 0 100 125" style="enable-background:new 0 0 100 125;" xml:space="preserve">
<path d="M83.5,35.8l9.8-14.9l-32.8-9L50,24.6L39.4,11.8l-32.8,9l9.8,14.9L5,50l11.6,3.2v22.6l33,12.2v0.3l0.5-0.2l0.5,0.2V88
	l33-12.2V53.2L95,50L83.5,35.8z M18.8,35.8L50,26.4l31.2,9.4L50,44.5L18.8,35.8z M60.9,12.9l30.9,8.5l-9.1,13.8l-31.9-9.6l-0.2-0.3
	L60.9,12.9z M39.1,12.9l10.3,12.5l-0.2,0.3l-31.9,9.6L8.2,21.5L39.1,12.9z M6.7,49.5l9.9-12.3l0.7-0.8l32,8.9l-9.9,13.1l-21.8-5.9
	l-1-0.3L6.7,49.5z M49.5,86.9l-32-11.9V53.4l22.1,6l9.9-13V86.9z M82.5,75.1l-32,11.9V46.4l9.9,13l22.1-6V75.1z M82.5,52.4
	l-21.8,5.9l-9.9-13.1l32-8.9l0.7,0.8l9.9,12.3l-9.9,2.7L82.5,52.4z"/>
</svg>
