<?xml version="1.0" encoding="utf-8"?>
<!-- Generator: Adobe Illustrator 22.1.0, SVG Export Plug-In . SVG Version: 6.00 Build 0)  -->
<svg version="1.1" id="Layer_1" xmlns="http://www.w3.org/2000/svg" xmlns:xlink="http://www.w3.org/1999/xlink" x="0px" y="0px"
	 viewBox="0 0 64 80" style="enable-background:new 0 0 64 80;" xml:space="preserve">
<g>
	<path d="M17,29v2h-2v2h2h1h1.4c0.2,0.2,0.4,0.5,0.6,0.7V39c0,6.6,5.4,12,12,12s12-5.4,12-12v-5.3c0.2-0.2,0.4-0.4,0.6-0.7H46h1h2
		v-2h-2v-2c0-7.2-5.2-13.3-12.1-14.7c-0.3-0.8-1-1.3-1.9-1.3h-2c-0.9,0-1.6,0.5-1.9,1.3C22.2,15.7,17,21.8,17,29z M29.1,48.6
		c0.2-0.3,0.5-0.6,0.9-0.6h4c0.4,0,0.7,0.2,0.9,0.6C34,48.8,33,49,32,49S30,48.8,29.1,48.6z M36.7,47.8C36.3,46.7,35.2,46,34,46h-4
		c-1.2,0-2.3,0.7-2.7,1.8c-3.1-1.7-5.3-5-5.3-8.8v-4.2c0.4,0.1,0.8,0.2,1.2,0.2h17.5c0.4,0,0.8-0.1,1.2-0.2V39
		C42,42.8,39.9,46.1,36.7,47.8z M31,15h2v6h2v-4.6C40.8,17.7,45,23,45,29v2h-1.6l-0.3,0.6c-0.4,0.9-1.3,1.4-2.3,1.4H23.2
		c-1,0-1.9-0.6-2.3-1.4L20.6,31H19v-2c0-6,4.2-11.3,10-12.6V21h2V15z"/>
	<rect x="22" y="29" width="20" height="2"/>
	<path d="M36,11c1.9,0,3.5-1,4.3-2.6c7.8,2.8,13.8,9.3,15.9,17.4l1.9-0.5c-2.2-8.7-8.8-15.8-17.2-18.8C41,6.4,41,6.2,41,6
		c0-2.8-2.2-5-5-5s-5,2.2-5,5S33.2,11,36,11z M36,3c1.7,0,3,1.3,3,3s-1.3,3-3,3s-3-1.3-3-3S34.3,3,36,3z"/>
	<path d="M56.8,29l2-0.2c-0.1-0.6-0.2-1.2-0.3-1.8l-2,0.4C56.6,27.9,56.7,28.4,56.8,29z"/>
	<path d="M11,28c0-1.9-1-3.5-2.6-4.3C11.6,14.8,19.6,8.4,29,7.2l-0.2-2C18.5,6.5,9.9,13.4,6.5,23.1C6.4,23,6.2,23,6,23
		c-2.8,0-5,2.2-5,5s2.2,5,5,5S11,30.8,11,28z M3,28c0-1.7,1.3-3,3-3s3,1.3,3,3s-1.3,3-3,3S3,29.7,3,28z"/>
	<path d="M28,53c-1.9,0-3.5,1-4.3,2.6c-4.3-1.5-8.1-4.2-11-7.7l-1.5,1.3c3.2,3.9,7.3,6.7,12,8.4c0,0.2-0.1,0.4-0.1,0.5
		c0,2.8,2.2,5,5,5s5-2.2,5-5S30.8,53,28,53z M28,61c-1.7,0-3-1.3-3-3s1.3-3,3-3s3,1.3,3,3S29.7,61,28,61z"/>
	<path d="M7.2,35l-2,0.2c0.5,4.3,2.1,8.5,4.6,12.1l1.6-1.1C9.2,42.9,7.7,39,7.2,35z"/>
	<path d="M58,31c-2.8,0-5,2.2-5,5c0,1.9,1,3.5,2.6,4.3C52.4,49.2,44.4,55.6,35,56.8l0.2,2c10.2-1.2,18.8-8.2,22.2-17.8
		c0.2,0,0.4,0.1,0.5,0.1c2.8,0,5-2.2,5-5S60.8,31,58,31z M58,39c-1.7,0-3-1.3-3-3s1.3-3,3-3s3,1.3,3,3S59.7,39,58,39z"/>
</g>
</svg>
