<svg version="1.1" id="Layer_1" xmlns="http://www.w3.org/2000/svg" xmlns:xlink="http://www.w3.org/1999/xlink" x="0px" y="0px"
	 viewBox="0 0 23.9 21.9" style="enable-background:new 0 0 23.9 21.9;" xml:space="preserve">
<g>
	<path d="M23.5,0H0.4C0.2,0,0,0.2,0,0.4V14c0,0.2,0.2,0.4,0.4,0.4h5.2C5.9,14.4,6,14.2,6,14s-0.2-0.4-0.4-0.4H0.8V0.8h22.3v12.8
		h-4.8c-0.2,0-0.4,0.2-0.4,0.4s0.2,0.4,0.4,0.4h5.2c0.2,0,0.4-0.2,0.4-0.4V0.4C23.9,0.2,23.7,0,23.5,0z"/>
	<path d="M3.4,3.8h3.5c0.2,0,0.4-0.2,0.4-0.4S7.1,3,6.9,3H3.4C3.2,3,3,3.2,3,3.4S3.2,3.8,3.4,3.8z"/>
	<path d="M3.4,5.8h6c0.2,0,0.4-0.2,0.4-0.4S9.7,5,9.4,5h-6C3.2,5,3,5.2,3,5.4S3.2,5.8,3.4,5.8z"/>
	<path d="M16.5,10.7V9.6c0-0.9-0.7-1.6-1.6-1.6h-1.1l-0.7-0.7c-0.3-0.3-0.7-0.5-1.2-0.5c0,0,0,0,0,0c-0.4,0-0.8,0.2-1.1,0.5L10.1,8
		H9C8.1,8,7.4,8.7,7.4,9.6v1.1l-0.7,0.7c-0.3,0.3-0.5,0.7-0.5,1.1c0,0.4,0.2,0.8,0.5,1.1l0.7,0.7v1.1c0,0.6,0.3,1.1,0.8,1.4
		l-1.3,2.7c-0.1,0.1-0.1,0.3,0,0.4c0.1,0.1,0.2,0.2,0.4,0.2L9.1,20l1.1,1.7c0.1,0.1,0.2,0.2,0.3,0.2c0.1,0,0.3-0.1,0.3-0.2l1.1-1.7
		l1.1,1.7c0.1,0.1,0.2,0.2,0.3,0.2c0,0,0,0,0,0c0.1,0,0.3-0.1,0.3-0.2l1.1-1.7l1.9,0.2c0.1,0,0.3-0.1,0.4-0.2c0.1-0.1,0.1-0.3,0-0.4
		l-1.3-2.7c0.5-0.3,0.8-0.8,0.8-1.4v-1.1l0.7-0.7c0.3-0.3,0.5-0.7,0.5-1.1c0-0.4-0.2-0.9-0.5-1.2L16.5,10.7z M14.6,19.2
		c-0.2,0-0.3,0.1-0.4,0.2l-0.9,1.4L12.3,19c-0.1-0.1-0.2-0.2-0.3-0.2s-0.3,0.1-0.3,0.2l-1.1,1.7l-0.9-1.4c-0.1-0.1-0.2-0.2-0.4-0.2
		l-1.4,0.1l1.2-2.5c0.1,0,0.3,0,0.5,0c0.2,0,0.3,0,0.3,0c0.1,0.1,0.5,0.4,0.8,0.8c0.7,0.7,1.9,0.7,2.6,0c0.3-0.4,0.6-0.7,0.7-0.8
		c0,0,0.1,0,0.3,0c0.2,0,0.4,0,0.5,0l1.2,2.5L14.6,19.2z M16.6,13.1l-0.8,0.8c-0.1,0.1-0.1,0.2-0.1,0.3v1.3c0,0.3-0.2,0.5-0.4,0.7
		c-0.1,0-0.1-0.1-0.2-0.1c0,0-0.4-0.1-0.8-0.1c-0.3,0-0.5,0-0.6,0.1c-0.4,0.1-0.9,0.8-1,1c-0.4,0.4-1.1,0.4-1.4,0
		c-0.2-0.3-0.7-0.9-1.1-1C10,16,9.9,16,9.6,16C9.2,16,8.8,16,8.8,16c-0.1,0-0.1,0-0.2,0.1c-0.2-0.1-0.4-0.4-0.4-0.7v-1.3
		c0-0.1,0-0.2-0.1-0.3l-0.8-0.8C7.1,12.9,7,12.7,7,12.5c0-0.2,0.1-0.4,0.2-0.6l0.8-0.8c0.1-0.1,0.1-0.2,0.1-0.3V9.6
		c0-0.4,0.4-0.8,0.8-0.8h1.3c0.1,0,0.2,0,0.3-0.1l0.8-0.8c0.1-0.2,0.3-0.2,0.6-0.2c0.2,0,0.4,0.1,0.6,0.2l0.8,0.8
		c0.1,0.1,0.2,0.1,0.3,0.1h1.3c0.5,0,0.8,0.4,0.8,0.8v1.3c0,0.1,0,0.2,0.1,0.3l0.8,0.8c0.2,0.2,0.2,0.4,0.2,0.6
		C16.8,12.7,16.8,12.9,16.6,13.1z"/>
	<path d="M11.9,10.2c-1.3,0-2.3,1-2.3,2.3c0,1.3,1,2.3,2.3,2.3s2.3-1,2.3-2.3C14.3,11.3,13.2,10.2,11.9,10.2z M11.9,14.1
		c-0.8,0-1.5-0.7-1.5-1.5s0.7-1.5,1.5-1.5s1.5,0.7,1.5,1.5S12.8,14.1,11.9,14.1z"/>
</g>
</svg>
